<svg xmlns="http://www.w3.org/2000/svg" viewBox="0 0 128 128">
  <!-- Sky blue background circle -->
  <circle cx="64" cy="64" r="60" fill="#e3f2fd"/>
  
  <!-- Dove body -->
  <ellipse cx="64" cy="70" rx="28" ry="22" fill="white"/>
  
  <!-- Dove head -->
  <circle cx="48" cy="58" r="12" fill="white"/>
  
  <!-- Wing -->
  <path d="M 70 65 Q 85 55, 95 60 Q 90 70, 75 75 Z" fill="#f0f0f0"/>
  <path d="M 68 70 Q 80 65, 88 68 Q 83 75, 72 78 Z" fill="#e8e8e8"/>
  
  <!-- Tail feathers -->
  <path d="M 85 75 L 92 80 L 90 85 L 85 82 Z" fill="white"/>
  <path d="M 87 78 L 95 82 L 93 87 L 87 84 Z" fill="#f5f5f5"/>
  
  <!-- Beak -->
  <path d="M 38 58 L 34 56 L 38 54 Z" fill="#ffa500"/>
  
  <!-- Eye -->
  <circle cx="44" cy="56" r="2" fill="black"/>
  
  <!-- Olive branch in beak -->
  <line x1="34" y1="56" x2="28" y2="54" stroke="#8bc34a" stroke-width="1.5"/>
  <ellipse cx="26" cy="53" rx="3" ry="2" fill="#8bc34a" transform="rotate(-15 26 53)"/>
  <ellipse cx="29" cy="52" rx="3" ry="2" fill="#8bc34a" transform="rotate(-10 29 52)"/>
  
  <!-- Halo/glow effect -->
  <circle cx="64" cy="64" r="58" fill="none" stroke="#ffd700" stroke-width="0.5" opacity="0.6"/>
</svg>